<svg xmlns="http://www.w3.org/2000/svg" xml:space="preserve" width="1500" height="88" data-id="lg_wdKzAfPrD8csjHzWhv" data-version="1" viewBox="0 0 1500 88"><g data-padding="0"><g transform="translate(10 1.571)scale(.96429)"><path fill="#046380" d="M532.86.101a43.899 43.899 0 1 0 0 87.798 43.899 43.899 0 1 0 0-87.798"/><rect width="477.146" height="82.49" x="265.303" y="-41.348" fill="none" rx="0" ry="0" transform="matrix(.97 0 0 .97 329.2 44.14)"/><path fill="#046380" d="M616.77 66.19h-9.3l-.07-34.74h-18.33v-6.77h46.09v6.77h-18.39Zm32.62.01h-8.6V34.63h5.78l2.68 1.41q1.83-.99 3.95-1.55 2.11-.57 5.35-.57 5.15 0 8.35 1.13 3.21 1.13 4.27 1.69l-2.47 6.13q-.85-.42-2.78-1.09-1.94-.67-4.55-1.23-2.61-.57-5.71-.57h-.77q-3.39 0-4.41 1.34t-1.09 4.44Zm39.34-.01h-3.53q-5.35 0-7.75-2.5t-2.4-6.87q0-4.58 2.5-7.05 2.51-2.47 7.65-2.47h3.6q5.28 0 9.51.28 4.23.29 6.98.57V43.5q0-.64-.14-1.31-.15-.67-.85-1.09t-2.4-.42h-3.52q-7.68 0-12.83.24-5.14.25-6.97.46l-.78-5.35q0-.99 5.36-1.2 5.35-.21 17.9-.21h3.52q3.53 0 5.43.98 1.9.99 2.71 2.47t.99 3q.17 1.51.17 2.57v22.55h-5.77l-2.75-1.41q-2.96.49-7.12.95t-9.51.46m-1.7-6.06h16.14q1.55 0 1.83-.28.29-.29.29-1.77v-5.42h-18.26q-1.9 0-2.64.91-.74.92-.74 2.89 0 1.98.85 2.82.84.85 2.53.85m39.95-29.95q-2.6 0-3.8-1.06t-1.2-3.52q0-2.54 1.16-3.56t3.84-1.02 3.88 1.02 1.2 3.56q0 2.39-1.2 3.48-1.2 1.1-3.88 1.1m4.3 36.01h-8.6V34.62h8.6Zm21.36.01h-3.53q-3.52 0-5.42-.92-1.91-.91-2.72-2.32t-.98-2.96q-.18-1.55-.18-2.82V43.65q0-1.06.18-2.57.17-1.52.98-3t2.75-2.47q1.94-.98 5.39-.98h3.6q6.48 0 10.46.24 3.98.25 6.1.53V21.52h8.6V66.2h-5.78l-2.75-1.41q-2.96.49-7.12.95t-9.58.46m-.85-6.06h15.29q1.48 0 1.84-.35.35-.36.35-1.77V41.18q-2.4-.14-6.06-.32-3.67-.17-7.83-.17h-3.59q-3.38 0-3.38 2.82v13.81q0 2.82 3.38 2.82m40.24-29.96q-2.61 0-3.8-1.06-1.2-1.06-1.2-3.52 0-2.54 1.16-3.56t3.84-1.02 3.88 1.02 1.2 3.56q0 2.39-1.2 3.48-1.2 1.1-3.88 1.1m4.3 36.01h-8.6V34.62h8.6Zm17.83 0h-8.6V34.62h5.78l2.82 1.41q2.96-.57 7.12-.99t9.51-.42h3.53q3.52 0 5.42.98 1.91.99 2.72 2.47t.98 3q.18 1.51.18 2.57v22.55h-8.6V43.5q0-2.82-3.38-2.82h-15.37q-1.33 0-1.72.24-.39.25-.39 1.31Zm64.27 12.4h-3.52q-7.75 0-12.62-.14-4.86-.14-7.47-.42-2.6-.28-3.56-.71-.95-.42-.95-.91l2.12-5.29q1.13.36 3.98.88 2.85.53 7.29.53h12.05q2.61 0 3.7-.77 1.1-.78 1.1-2.75v-4.23q-3.03.56-7.16.99-4.12.42-9.47.42h-3.53q-3.52 0-5.43-.92-1.9-.91-2.71-2.32t-.99-2.96q-.17-1.55-.17-2.82V43.64q0-1.06.17-2.57.18-1.52.99-3T855 35.6q1.94-.98 5.39-.98h3.6q7.4 0 11.52.28t6.02.63l1.84-.91h5.78v34.95q0 1.27-.39 2.82t-1.52 2.96-3.24 2.33q-2.11.91-5.57.91m-15.36-18.46h15.29q1.62 0 1.91-.28.28-.29.28-1.84V41.17q-2.4-.14-6.06-.32-3.67-.17-7.83-.17h-3.59q-3.38 0-3.38 2.82v13.81q-.07 2.82 3.38 2.82m47.15 6.06h-3.53q-5.35 0-7.75-2.5t-2.4-6.87q0-4.58 2.51-7.05 2.5-2.47 7.64-2.47h3.6q5.28 0 9.51.28 4.23.29 6.98.57V43.5q0-.64-.14-1.31t-.85-1.09q-.7-.42-2.39-.42h-3.53q-7.68 0-12.82.24-5.15.25-6.98.46l-.78-5.35q0-.99 5.36-1.2t17.9-.21h3.52q3.53 0 5.43.98 1.9.99 2.71 2.47t.99 3q.18 1.51.18 2.57v22.55h-5.78l-2.75-1.41q-2.96.49-7.12.95t-9.51.46m-1.69-6.06h16.13q1.55 0 1.84-.28.28-.29.28-1.77v-5.42h-18.25q-1.91 0-2.65.91-.74.92-.74 2.89 0 1.98.85 2.82.84.85 2.54.85m43.55 19.18h-8.6V34.63h5.78l1.76.91q3.17-.35 7.58-.63 4.4-.28 10.04-.28h3.59q3.53 0 5.43.91 1.9.92 2.71 2.33.82 1.41.99 2.96.18 1.55.18 2.82v13.53q0 1.06-.18 2.57-.17 1.52-.99 3-.81 1.48-2.71 2.46-1.9.99-5.43.99h-3.59q-5.36 0-9.51-.28-4.16-.28-7.05-.57Zm2.18-19.17h15.3q1.34 0 2.36-.71 1.02-.7 1.02-2.11V43.51q.07-1.55-.74-2.19-.81-.63-2.64-.63h-3.53q-4.51 0-8 .17-3.48.18-5.95.39v16.7q0 1.55.32 1.87.31.32 1.86.32m43.63 19.17h-8.6V34.63h5.78l1.76.91q3.17-.35 7.58-.63 4.4-.28 10.04-.28h3.59q3.53 0 5.43.91 1.9.92 2.71 2.33t.99 2.96.18 2.82v13.53q0 1.06-.18 2.57-.18 1.52-.99 3t-2.71 2.46q-1.9.99-5.43.99h-3.59q-5.36 0-9.51-.28-4.16-.28-7.05-.57Zm2.18-19.17h15.3q1.33 0 2.36-.71 1.02-.7 1.02-2.11V43.51q.07-1.55-.74-2.19-.81-.63-2.64-.63h-3.53q-4.51 0-8 .17-3.49.18-5.95.39v16.7q0 1.55.31 1.87.32.32 1.87.32"/><rect width="37.217" height="57.63" x="485.267" y="-28.918" fill="none" rx="0" ry="0" transform="matrix(.97 0 0 .97 44.81 43.97)"/><path fill="#fff" d="M538.16 60.67h-6.5l-.05-24.27h-12.8v-4.73h32.2v4.73h-12.85Z"/></g><path fill="transparent" stroke="transparent" d="M471.698 0h560v88h-560z"/></g></svg>