<?xml version="1.0" encoding="UTF-8" standalone="no" ?>
<!DOCTYPE svg PUBLIC "-//W3C//DTD SVG 1.1//EN" "http://www.w3.org/Graphics/SVG/1.1/DTD/svg11.dtd">
<svg xmlns="http://www.w3.org/2000/svg" xmlns:xlink="http://www.w3.org/1999/xlink" version="1.1" width="500" height="100" viewBox="0 0 500 100" xml:space="preserve">
<desc>Created with Fabric.js 5.2.4</desc>
<defs>
</defs>
<rect x="0" y="0" width="100%" height="100%" fill="transparent"></rect>
<g transform="matrix(Infinity NaN NaN Infinity 0 0)" id="0cf5d98a-475d-4da4-b5b2-03919cca0199"  >
</g>
<g transform="matrix(1 0 0 1 250 50)" id="53a982bd-b930-41ec-a782-17462b796647"  >
<rect style="stroke: none; stroke-width: 1; stroke-dasharray: none; stroke-linecap: butt; stroke-dashoffset: 0; stroke-linejoin: miter; stroke-miterlimit: 4; fill: rgb(255,0,0); fill-rule: nonzero; opacity: 1; visibility: hidden;" vector-effect="non-scaling-stroke"  x="-250" y="-50" rx="0" ry="0" width="500" height="100" />
</g>
<g transform="matrix(0.84 0 0 0.84 250 50)"  >
<g style="" vector-effect="non-scaling-stroke"   >
		<g transform="matrix(0.96 0 0 0.96 -228.06 -0.19)"  >
<path style="stroke: none; stroke-width: 1; stroke-dasharray: none; stroke-linecap: butt; stroke-dashoffset: 0; stroke-linejoin: miter; stroke-miterlimit: 4; fill: rgb(4,99,128); fill-rule: nonzero; opacity: 1;" vector-effect="non-scaling-stroke"  transform=" translate(-532.86, -44)" d="M 532.86 0.101 C 508.615251767178 0.101 488.961 19.755251767178 488.961 44 C 488.961 68.244748232822 508.615251767178 87.899 532.86 87.899 C 557.104748232822 87.899 576.759 68.244748232822 576.759 44 C 576.759 19.755251767177995 557.104748232822 0.10099999999999909 532.86 0.10099999999999909" stroke-linecap="round" />
</g>
		<g transform="matrix(0.94 0 0 0.94 48.16 0.23)"  >
<rect style="stroke: none; stroke-width: 1; stroke-dasharray: none; stroke-linecap: butt; stroke-dashoffset: 0; stroke-linejoin: miter; stroke-miterlimit: 4; fill: none; fill-rule: nonzero; opacity: 1;" vector-effect="non-scaling-stroke"  x="-238.575" y="-41.245" rx="0" ry="0" width="477.15" height="82.49" />
</g>
		<g transform="matrix(0.96 0 0 0.96 36.71 5.82)"  >
<path style="stroke: none; stroke-width: 1; stroke-dasharray: none; stroke-linecap: butt; stroke-dashoffset: 0; stroke-linejoin: miter; stroke-miterlimit: 4; fill: rgb(4,99,128); fill-rule: nonzero; opacity: 1;" vector-effect="non-scaling-stroke"  transform=" translate(-808.21, -50.16)" d="M 616.77 66.19 L 607.47 66.19 L 607.4 31.449999999999996 L 589.0699999999999 31.449999999999996 L 589.0699999999999 24.679999999999996 L 635.16 24.679999999999996 L 635.16 31.449999999999996 L 616.77 31.449999999999996 Z M 649.39 66.2 L 640.79 66.2 L 640.79 34.63 L 646.5699999999999 34.63 L 649.2499999999999 36.04 Q 651.0799999999999 35.05 653.1999999999999 34.49 Q 655.31 33.92 658.55 33.92 Q 663.6999999999999 33.92 666.9 35.050000000000004 Q 670.11 36.18000000000001 671.17 36.74 L 668.6999999999999 42.870000000000005 Q 667.8499999999999 42.45 665.92 41.78 Q 663.9799999999999 41.11 661.37 40.550000000000004 Q 658.76 39.980000000000004 655.66 39.980000000000004 L 654.89 39.980000000000004 Q 651.5 39.980000000000004 650.48 41.32000000000001 Q 649.46 42.66000000000001 649.39 45.760000000000005 Z M 688.73 66.19 L 685.2 66.19 Q 679.85 66.19 677.45 63.69 Q 675.0500000000001 61.19 675.0500000000001 56.82 Q 675.0500000000001 52.24 677.5500000000001 49.77 Q 680.0600000000001 47.300000000000004 685.2 47.300000000000004 L 688.8000000000001 47.300000000000004 Q 694.08 47.300000000000004 698.3100000000001 47.580000000000005 Q 702.5400000000001 47.870000000000005 705.2900000000001 48.150000000000006 L 705.2900000000001 43.5 Q 705.2900000000001 42.86 705.1500000000001 42.19 Q 705.0000000000001 41.519999999999996 704.3000000000001 41.099999999999994 Q 703.6 40.67999999999999 701.9000000000001 40.67999999999999 L 698.3800000000001 40.67999999999999 Q 690.7000000000002 40.67999999999999 685.5500000000001 40.919999999999995 Q 680.4100000000001 41.169999999999995 678.58 41.379999999999995 L 677.8000000000001 36.029999999999994 Q 677.8000000000001 35.03999999999999 683.1600000000001 34.82999999999999 Q 688.5100000000001 34.61999999999999 701.0600000000001 34.61999999999999 L 704.58 34.61999999999999 Q 708.11 34.61999999999999 710.01 35.59999999999999 Q 711.91 36.58999999999999 712.72 38.069999999999986 Q 713.5300000000001 39.54999999999998 713.71 41.069999999999986 Q 713.88 42.579999999999984 713.88 43.639999999999986 L 713.88 66.18999999999998 L 708.11 66.18999999999998 L 705.36 64.77999999999999 Q 702.4 65.26999999999998 698.24 65.72999999999999 Q 694.08 66.19 688.73 66.18999999999998 M 687.03 60.12999999999998 L 703.17 60.12999999999998 Q 704.7199999999999 60.12999999999998 705 59.84999999999998 Q 705.29 59.55999999999998 705.29 58.07999999999998 L 705.29 52.659999999999975 L 687.03 52.659999999999975 Q 685.13 52.659999999999975 684.39 53.56999999999997 Q 683.65 54.489999999999974 683.65 56.45999999999997 Q 683.65 58.43999999999997 684.5 59.27999999999997 Q 685.34 60.129999999999974 687.03 60.129999999999974 M 726.98 30.179999999999975 Q 724.38 30.179999999999975 723.1800000000001 29.119999999999976 Q 721.9800000000001 28.059999999999977 721.98 25.599999999999977 Q 721.98 23.059999999999977 723.14 22.039999999999978 Q 724.3 21.01999999999998 726.98 21.01999999999998 Q 729.6600000000001 21.01999999999998 730.86 22.039999999999978 Q 732.06 23.059999999999977 732.0600000000001 25.599999999999977 Q 732.0600000000001 27.989999999999977 730.86 29.079999999999977 Q 729.66 30.17999999999998 726.98 30.17999999999998 M 731.28 66.18999999999997 L 722.68 66.18999999999997 L 722.68 34.62 L 731.28 34.62 Z M 752.64 66.19999999999997 L 749.11 66.19999999999997 Q 745.59 66.19999999999997 743.69 65.27999999999997 Q 741.7800000000001 64.36999999999998 740.97 62.95999999999997 Q 740.16 61.54999999999997 739.99 59.99999999999997 Q 739.8100000000001 58.449999999999974 739.8100000000001 57.17999999999997 L 739.8100000000001 43.65 Q 739.8100000000001 42.589999999999996 739.99 41.08 Q 740.16 39.559999999999995 740.97 38.08 Q 741.7800000000001 36.6 743.72 35.61 Q 745.6600000000001 34.63 749.11 34.63 L 752.71 34.63 Q 759.19 34.63 763.1700000000001 34.870000000000005 Q 767.1500000000001 35.120000000000005 769.2700000000001 35.400000000000006 L 769.2700000000001 21.52 L 777.8700000000001 21.52 L 777.8700000000001 66.2 L 772.0900000000001 66.2 L 769.3400000000001 64.79 Q 766.3800000000001 65.28 762.2200000000001 65.74000000000001 Q 758.0600000000002 66.20000000000002 752.6400000000001 66.2 M 751.7900000000001 60.14 L 767.08 60.14 Q 768.5600000000001 60.14 768.9200000000001 59.79 Q 769.2700000000001 59.43 769.2700000000001 58.019999999999996 L 769.2700000000001 41.18 Q 766.8700000000001 41.04 763.2100000000002 40.86 Q 759.5400000000002 40.69 755.3800000000001 40.69 L 751.7900000000001 40.69 Q 748.4100000000001 40.69 748.4100000000001 43.51 L 748.4100000000001 57.32 Q 748.4100000000001 60.14 751.7900000000001 60.14 M 792.0300000000001 30.18 Q 789.4200000000001 30.18 788.2300000000001 29.12 Q 787.0300000000001 28.060000000000002 787.0300000000001 25.6 Q 787.0300000000001 23.060000000000002 788.19 22.040000000000003 Q 789.35 21.020000000000003 792.0300000000001 21.020000000000003 Q 794.7100000000002 21.020000000000003 795.9100000000001 22.040000000000003 Q 797.11 23.060000000000002 797.1100000000001 25.6 Q 797.1100000000001 27.990000000000002 795.9100000000001 29.080000000000002 Q 794.71 30.180000000000003 792.0300000000001 30.180000000000003 M 796.33 66.19 L 787.73 66.19 L 787.73 34.62 L 796.33 34.62 Z M 814.1600000000001 66.19 L 805.5600000000001 66.19 L 805.5600000000001 34.62 L 811.34 34.62 L 814.1600000000001 36.029999999999994 Q 817.1200000000001 35.459999999999994 821.2800000000001 35.03999999999999 Q 825.44 34.61999999999999 830.7900000000001 34.61999999999999 L 834.32 34.61999999999999 Q 837.84 34.61999999999999 839.74 35.59999999999999 Q 841.65 36.58999999999999 842.46 38.069999999999986 Q 843.2700000000001 39.54999999999998 843.44 41.069999999999986 Q 843.62 42.579999999999984 843.62 43.639999999999986 L 843.62 66.18999999999998 L 835.02 66.18999999999998 L 835.02 43.5 Q 835.02 40.68 831.64 40.68 L 816.27 40.68 Q 814.9399999999999 40.68 814.55 40.92 Q 814.16 41.17 814.16 42.230000000000004 Z M 878.4300000000001 78.59 L 874.9100000000001 78.59 Q 867.1600000000001 78.59 862.2900000000001 78.45 Q 857.4300000000001 78.31 854.82 78.03 Q 852.22 77.75 851.2600000000001 77.32000000000001 Q 850.3100000000001 76.9 850.3100000000001 76.41000000000001 L 852.4300000000001 71.12 Q 853.5600000000001 71.48 856.4100000000001 72 Q 859.2600000000001 72.53 863.7 72.53 L 875.75 72.53 Q 878.36 72.53 879.45 71.76 Q 880.5500000000001 70.98 880.5500000000001 69.01 L 880.5500000000001 64.78 Q 877.5200000000001 65.34 873.3900000000001 65.77 Q 869.2700000000001 66.19 863.9200000000001 66.19 L 860.3900000000001 66.19 Q 856.8700000000001 66.19 854.9600000000002 65.27 Q 853.0600000000002 64.36 852.2500000000001 62.949999999999996 Q 851.44 61.53999999999999 851.2600000000001 59.989999999999995 Q 851.0900000000001 58.44 851.0900000000001 57.169999999999995 L 851.0900000000001 43.64 Q 851.0900000000001 42.58 851.2600000000001 41.07 Q 851.44 39.55 852.2500000000001 38.07 Q 853.0600000000002 36.59 855 35.6 Q 856.94 34.620000000000005 860.39 34.620000000000005 L 863.99 34.620000000000005 Q 871.39 34.620000000000005 875.51 34.900000000000006 Q 879.63 35.18000000000001 881.53 35.53000000000001 L 883.37 34.62000000000001 L 889.15 34.62000000000001 L 889.15 69.57000000000002 Q 889.15 70.84000000000002 888.76 72.39000000000001 Q 888.37 73.94000000000001 887.24 75.35000000000001 Q 886.11 76.76 884 77.68 Q 881.89 78.59 878.43 78.59 M 863.0699999999999 60.13 L 878.3599999999999 60.13 Q 879.9799999999999 60.13 880.2699999999999 59.85 Q 880.5499999999998 59.56 880.5499999999998 58.01 L 880.5499999999998 41.17 Q 878.1499999999999 41.03 874.4899999999999 40.85 Q 870.8199999999999 40.68 866.6599999999999 40.68 L 863.0699999999998 40.68 Q 859.6899999999998 40.68 859.6899999999998 43.5 L 859.6899999999998 57.31 Q 859.6199999999998 60.13 863.0699999999998 60.13 M 910.2199999999998 66.19 L 906.6899999999998 66.19 Q 901.3399999999998 66.19 898.9399999999998 63.69 Q 896.5399999999998 61.19 896.5399999999998 56.82 Q 896.5399999999998 52.24 899.0499999999998 49.77 Q 901.5499999999998 47.300000000000004 906.6899999999998 47.300000000000004 L 910.2899999999998 47.300000000000004 Q 915.5699999999998 47.300000000000004 919.7999999999998 47.580000000000005 Q 924.0299999999999 47.870000000000005 926.7799999999999 48.150000000000006 L 926.7799999999999 43.5 Q 926.7799999999999 42.86 926.6399999999999 42.19 Q 926.4999999999999 41.519999999999996 925.7899999999998 41.099999999999994 Q 925.0899999999998 40.67999999999999 923.3999999999999 40.67999999999999 L 919.8699999999999 40.67999999999999 Q 912.1899999999999 40.67999999999999 907.0499999999998 40.919999999999995 Q 901.8999999999999 41.169999999999995 900.0699999999998 41.379999999999995 L 899.2899999999998 36.029999999999994 Q 899.2899999999998 35.03999999999999 904.6499999999999 34.82999999999999 Q 910.0099999999999 34.61999999999999 922.5499999999998 34.61999999999999 L 926.0699999999998 34.61999999999999 Q 929.5999999999998 34.61999999999999 931.4999999999998 35.59999999999999 Q 933.3999999999997 36.58999999999999 934.2099999999998 38.069999999999986 Q 935.0199999999999 39.54999999999998 935.1999999999998 41.069999999999986 Q 935.3799999999998 42.579999999999984 935.3799999999998 43.639999999999986 L 935.3799999999998 66.18999999999998 L 929.5999999999998 66.18999999999998 L 926.8499999999998 64.77999999999999 Q 923.8899999999998 65.26999999999998 919.7299999999998 65.72999999999999 Q 915.5699999999998 66.19 910.2199999999998 66.18999999999998 M 908.5299999999997 60.12999999999998 L 924.6599999999997 60.12999999999998 Q 926.2099999999997 60.12999999999998 926.4999999999998 59.84999999999998 Q 926.7799999999997 59.55999999999998 926.7799999999997 58.07999999999998 L 926.7799999999997 52.659999999999975 L 908.5299999999997 52.659999999999975 Q 906.6199999999998 52.659999999999975 905.8799999999998 53.56999999999997 Q 905.1399999999998 54.489999999999974 905.1399999999998 56.45999999999997 Q 905.1399999999998 58.43999999999997 905.9899999999998 59.27999999999997 Q 906.8299999999998 60.129999999999974 908.5299999999997 60.129999999999974 M 952.0799999999997 79.30999999999997 L 943.4799999999997 79.30999999999997 L 943.4799999999997 34.63 L 949.2599999999996 34.63 L 951.0199999999996 35.54 Q 954.1899999999996 35.19 958.5999999999997 34.91 Q 962.9999999999997 34.629999999999995 968.6399999999996 34.629999999999995 L 972.2299999999997 34.629999999999995 Q 975.7599999999996 34.629999999999995 977.6599999999996 35.53999999999999 Q 979.5599999999996 36.459999999999994 980.3699999999997 37.86999999999999 Q 981.1899999999997 39.27999999999999 981.3599999999997 40.82999999999999 Q 981.5399999999996 42.37999999999999 981.5399999999996 43.64999999999999 L 981.5399999999996 57.17999999999999 Q 981.5399999999996 58.239999999999995 981.3599999999997 59.74999999999999 Q 981.1899999999997 61.269999999999996 980.3699999999997 62.74999999999999 Q 979.5599999999997 64.22999999999999 977.6599999999996 65.21 Q 975.7599999999996 66.19999999999999 972.2299999999997 66.19999999999999 L 968.6399999999996 66.19999999999999 Q 963.2799999999996 66.19999999999999 959.1299999999997 65.91999999999999 Q 954.9699999999997 65.63999999999999 952.0799999999997 65.35 Z M 954.2599999999996 60.13999999999997 L 969.5599999999996 60.13999999999997 Q 970.8999999999996 60.13999999999997 971.9199999999996 59.42999999999997 Q 972.9399999999996 58.72999999999997 972.9399999999996 57.31999999999997 L 972.9399999999996 43.51 Q 973.0099999999996 41.96 972.1999999999996 41.32 Q 971.3899999999996 40.69 969.5599999999996 40.69 L 966.0299999999996 40.69 Q 961.5199999999996 40.69 958.0299999999996 40.86 Q 954.5499999999996 41.04 952.0799999999996 41.25 L 952.0799999999996 57.95 Q 952.0799999999996 59.5 952.3999999999996 59.82 Q 952.7099999999996 60.14 954.2599999999996 60.14 M 997.8899999999996 79.31 L 989.2899999999996 79.31 L 989.2899999999996 34.63 L 995.0699999999996 34.63 L 996.8299999999996 35.54 Q 999.9999999999995 35.19 1004.4099999999996 34.91 Q 1008.8099999999996 34.629999999999995 1014.4499999999996 34.629999999999995 L 1018.0399999999996 34.629999999999995 Q 1021.5699999999996 34.629999999999995 1023.4699999999996 35.53999999999999 Q 1025.3699999999997 36.459999999999994 1026.1799999999996 37.86999999999999 Q 1026.9899999999996 39.27999999999999 1027.1699999999996 40.82999999999999 Q 1027.3499999999997 42.379999999999995 1027.3499999999997 43.64999999999999 L 1027.3499999999997 57.17999999999999 Q 1027.3499999999997 58.239999999999995 1027.1699999999996 59.74999999999999 Q 1026.9899999999996 61.269999999999996 1026.1799999999996 62.74999999999999 Q 1025.3699999999997 64.22999999999999 1023.4699999999996 65.21 Q 1021.5699999999996 66.19999999999999 1018.0399999999996 66.19999999999999 L 1014.4499999999996 66.19999999999999 Q 1009.0899999999996 66.19999999999999 1004.9399999999996 65.91999999999999 Q 1000.7799999999996 65.63999999999999 997.8899999999996 65.35 Z M 1000.0699999999996 60.14 L 1015.3699999999995 60.14 Q 1016.6999999999996 60.14 1017.7299999999996 59.43 Q 1018.7499999999995 58.73 1018.7499999999995 57.32 L 1018.7499999999995 43.51 Q 1018.8199999999996 41.96 1018.0099999999995 41.32 Q 1017.1999999999996 40.69 1015.3699999999995 40.69 L 1011.8399999999996 40.69 Q 1007.3299999999996 40.69 1003.8399999999996 40.86 Q 1000.3499999999996 41.04 997.8899999999995 41.25 L 997.8899999999995 57.95 Q 997.8899999999995 59.5 998.1999999999995 59.82 Q 998.5199999999995 60.14 1000.0699999999995 60.14" stroke-linecap="round" />
</g>
		<g transform="matrix(0.94 0 0 0.94 -227.1 0.01)"  >
<rect style="stroke: none; stroke-width: 1; stroke-dasharray: none; stroke-linecap: butt; stroke-dashoffset: 0; stroke-linejoin: miter; stroke-miterlimit: 4; fill: none; fill-rule: nonzero; opacity: 1;" vector-effect="non-scaling-stroke"  x="-18.61" y="-28.815" rx="0" ry="0" width="37.22" height="57.63" />
</g>
		<g transform="matrix(0.96 0 0 0.96 -225.95 2.03)"  >
<path style="stroke: none; stroke-width: 1; stroke-dasharray: none; stroke-linecap: butt; stroke-dashoffset: 0; stroke-linejoin: miter; stroke-miterlimit: 4; fill: rgb(255,255,255); fill-rule: nonzero; opacity: 1;" vector-effect="non-scaling-stroke"  transform=" translate(-534.91, -46.17)" d="M 538.16 60.67 L 531.66 60.67 L 531.61 36.400000000000006 L 518.8100000000001 36.400000000000006 L 518.8100000000001 31.670000000000005 L 551.0100000000001 31.670000000000005 L 551.0100000000001 36.400000000000006 L 538.1600000000001 36.400000000000006 Z" stroke-linecap="round" />
</g>
		<g transform="matrix(1 0 0 1 0 0)"  >
<path style="stroke: rgb(255,255,255); stroke-opacity: 0; stroke-width: 1; stroke-dasharray: none; stroke-linecap: butt; stroke-dashoffset: 0; stroke-linejoin: miter; stroke-miterlimit: 4; fill: rgb(255,255,255); fill-opacity: 0; fill-rule: nonzero; opacity: 1;" vector-effect="non-scaling-stroke"  transform=" translate(-751.7, -44)" d="M 471.698 0 L 1031.6979999999999 0 L 1031.6979999999999 88 L 471.69799999999987 88 z" stroke-linecap="round" />
</g>
</g>
</g>
</svg>