<svg width="94" height="22" viewBox="0 0 94 22" fill="none" xmlns="http://www.w3.org/2000/svg">
<g clip-path="url(#clip0_1_2)">
<circle cx="11" cy="11" r="11" fill="#046380"/>
<path d="M23.375 7.9858V6.27273H30.7514V7.9858H28.1051V15H26.0256V7.9858H23.375ZM31.1019 15V8.45455H33.1261V9.64773H33.1942C33.3136 9.21591 33.5082 8.89489 33.7781 8.68466C34.0479 8.47159 34.3619 8.36506 34.7198 8.36506C34.8164 8.36506 34.9158 8.37216 35.0181 8.38636C35.1204 8.39773 35.2156 8.41619 35.3036 8.44176V10.2528C35.2042 10.2187 35.0735 10.1918 34.9116 10.1719C34.7525 10.152 34.6104 10.142 34.4854 10.142C34.2383 10.142 34.0153 10.1974 33.8164 10.3082C33.6204 10.4162 33.4656 10.5682 33.3519 10.7642C33.2411 10.9574 33.1857 11.1847 33.1857 11.446V15H31.1019ZM37.7518 15.1108C37.3342 15.1108 36.9634 15.0412 36.6396 14.902C36.3185 14.7599 36.0643 14.5469 35.8768 14.2628C35.6921 13.9759 35.5998 13.6165 35.5998 13.1847C35.5998 12.821 35.6637 12.5142 35.7915 12.2642C35.9194 12.0142 36.0955 11.8111 36.32 11.6548C36.5444 11.4986 36.8029 11.3807 37.0955 11.3011C37.3881 11.2187 37.7006 11.1634 38.033 11.1349C38.4052 11.1009 38.7049 11.0653 38.9322 11.0284C39.1594 10.9886 39.3242 10.9332 39.4265 10.8622C39.5316 10.7884 39.5842 10.6847 39.5842 10.5511V10.5298C39.5842 10.3111 39.5089 10.142 39.3583 10.0227C39.2077 9.90341 39.0046 9.84375 38.7489 9.84375C38.4734 9.84375 38.2518 9.90341 38.0842 10.0227C37.9165 10.142 37.81 10.3068 37.7646 10.517L35.8427 10.4489C35.8995 10.0511 36.0458 9.69602 36.2816 9.38352C36.5202 9.06818 36.8469 8.82102 37.2617 8.64205C37.6793 8.46023 38.1808 8.36932 38.766 8.36932C39.1836 8.36932 39.5685 8.41903 39.9208 8.51847C40.2731 8.61506 40.5799 8.7571 40.8413 8.9446C41.1026 9.12926 41.3043 9.35653 41.4464 9.62642C41.5913 9.89631 41.6637 10.2045 41.6637 10.5511V15H39.7035V14.0881H39.6523C39.5359 14.3097 39.3867 14.4972 39.2049 14.6506C39.0259 14.804 38.8143 14.919 38.57 14.9957C38.3285 15.0724 38.0558 15.1108 37.7518 15.1108ZM38.3952 13.7472C38.6197 13.7472 38.8214 13.7017 39.0004 13.6108C39.1822 13.5199 39.3271 13.3949 39.435 13.2358C39.543 13.0739 39.5969 12.8864 39.5969 12.6733V12.0511C39.5373 12.0824 39.4648 12.1108 39.3796 12.1364C39.2972 12.1619 39.2063 12.1861 39.1069 12.2088C39.0075 12.2315 38.9052 12.2514 38.8001 12.2685C38.695 12.2855 38.5941 12.3011 38.4975 12.3153C38.3015 12.3466 38.1339 12.3949 37.9947 12.4602C37.8583 12.5256 37.7532 12.6108 37.6793 12.7159C37.6083 12.8182 37.5728 12.9403 37.5728 13.0824C37.5728 13.2983 37.6495 13.4631 37.8029 13.5767C37.9592 13.6903 38.1566 13.7472 38.3952 13.7472ZM45.3285 15.0938C44.8455 15.0938 44.4066 14.9688 44.0117 14.7188C43.6168 14.4688 43.3015 14.0938 43.0657 13.5938C42.8299 13.0938 42.712 12.473 42.712 11.7315C42.712 10.9616 42.8342 10.3281 43.0785 9.83097C43.3228 9.33381 43.6424 8.96591 44.0373 8.72727C44.435 8.48864 44.8626 8.36932 45.32 8.36932C45.6637 8.36932 45.9577 8.42898 46.2021 8.5483C46.4464 8.66477 46.6481 8.81534 46.8072 9C46.9663 9.18466 47.087 9.37642 47.1694 9.57528H47.212V6.27273H49.2958V15H47.2333V13.9389H47.1694C47.0813 14.1406 46.9563 14.3295 46.7944 14.5057C46.6325 14.6818 46.4293 14.8239 46.185 14.9318C45.9435 15.0398 45.658 15.0938 45.3285 15.0938ZM46.0529 13.4702C46.3058 13.4702 46.5217 13.3991 46.7006 13.2571C46.8796 13.1122 47.0174 12.9091 47.114 12.6477C47.2106 12.3864 47.2589 12.0795 47.2589 11.7273C47.2589 11.3693 47.2106 11.0611 47.114 10.8026C47.0202 10.544 46.8825 10.3452 46.7006 10.206C46.5217 10.0668 46.3058 9.99716 46.0529 9.99716C45.7944 9.99716 45.5756 10.0682 45.3967 10.2102C45.2177 10.3523 45.0813 10.5526 44.9876 10.8111C44.8967 11.0696 44.8512 11.375 44.8512 11.7273C44.8512 12.0795 44.8981 12.3864 44.9918 12.6477C45.0856 12.9091 45.2205 13.1122 45.3967 13.2571C45.5756 13.3991 45.7944 13.4702 46.0529 13.4702ZM50.6136 15V8.45455H52.6974V15H50.6136ZM51.6577 7.69176C51.3651 7.69176 51.1136 7.59517 50.9034 7.40199C50.6932 7.20597 50.5881 6.97017 50.5881 6.6946C50.5881 6.42187 50.6932 6.18892 50.9034 5.99574C51.1136 5.79972 51.3651 5.7017 51.6577 5.7017C51.9531 5.7017 52.2045 5.79972 52.4119 5.99574C52.6222 6.18892 52.7273 6.42187 52.7273 6.6946C52.7273 6.97017 52.6222 7.20597 52.4119 7.40199C52.2045 7.59517 51.9531 7.69176 51.6577 7.69176ZM56.1076 11.267V15H54.0238V8.45455H56.0053V9.65625H56.0778C56.2227 9.25568 56.4698 8.94176 56.8192 8.71449C57.1687 8.48438 57.5849 8.36932 58.0678 8.36932C58.5281 8.36932 58.9272 8.47301 59.2653 8.6804C59.6062 8.88494 59.8704 9.17187 60.0579 9.54119C60.2482 9.90767 60.342 10.3366 60.3391 10.8281V15H58.2553V11.2372C58.2582 10.8736 58.1658 10.5895 57.9783 10.3849C57.7937 10.1804 57.5366 10.0781 57.207 10.0781C56.9883 10.0781 56.7951 10.1264 56.6275 10.223C56.4627 10.3168 56.3349 10.4517 56.244 10.6278C56.1559 10.804 56.1104 11.017 56.1076 11.267ZM64.6804 17.5909C64.0582 17.5909 63.5256 17.5043 63.0824 17.331C62.6392 17.1577 62.2912 16.9205 62.0384 16.6193C61.7855 16.3182 61.6335 15.9773 61.5824 15.5966L63.5554 15.4858C63.5923 15.6193 63.6605 15.7358 63.7599 15.8352C63.8622 15.9347 63.9943 16.0114 64.1562 16.0653C64.321 16.1193 64.5142 16.1463 64.7358 16.1463C65.0852 16.1463 65.3736 16.0611 65.6009 15.8906C65.831 15.723 65.946 15.429 65.946 15.0085V13.858H65.8736C65.7912 14.0597 65.6662 14.2401 65.4986 14.3991C65.331 14.5582 65.1222 14.6832 64.8722 14.7741C64.625 14.8651 64.3409 14.9105 64.0199 14.9105C63.5426 14.9105 63.1051 14.7997 62.7074 14.5781C62.3125 14.3537 61.9957 14.0071 61.7571 13.5384C61.5213 13.0668 61.4034 12.4602 61.4034 11.7188C61.4034 10.9545 61.5256 10.3253 61.7699 9.83097C62.0142 9.33381 62.3338 8.96591 62.7287 8.72727C63.1264 8.48864 63.554 8.36932 64.0114 8.36932C64.3551 8.36932 64.6491 8.42898 64.8935 8.5483C65.1406 8.66477 65.3438 8.81534 65.5028 9C65.6619 9.18466 65.7827 9.37642 65.8651 9.57528H65.9247V8.45455H68V15.0256C68 15.5795 67.8608 16.0469 67.5824 16.4276C67.304 16.8082 66.9148 17.0966 66.4148 17.2926C65.9148 17.4915 65.3366 17.5909 64.6804 17.5909ZM64.7443 13.3935C64.9972 13.3935 65.2131 13.3267 65.392 13.1932C65.571 13.0597 65.7088 12.8679 65.8054 12.6179C65.902 12.3679 65.9503 12.0682 65.9503 11.7188C65.9503 11.3636 65.902 11.0582 65.8054 10.8026C65.7116 10.544 65.5739 10.3452 65.392 10.206C65.2131 10.0668 64.9972 9.99716 64.7443 9.99716C64.4858 9.99716 64.267 10.0682 64.0881 10.2102C63.9091 10.3523 63.7727 10.5526 63.679 10.8111C63.5881 11.0668 63.5426 11.3693 63.5426 11.7188C63.5426 12.0682 63.5895 12.3679 63.6832 12.6179C63.777 12.8679 63.9119 13.0597 64.0881 13.1932C64.267 13.3267 64.4858 13.3935 64.7443 13.3935ZM71.2163 15H68.9492L71.8938 6.27273H74.7021L77.6467 15H75.3796L73.3299 8.47159H73.2617L71.2163 15ZM70.9137 11.5653H75.6523V13.1676H70.9137V11.5653ZM78.5863 17.4545V8.45455H80.6488V9.57528H80.7127C80.7979 9.37642 80.9187 9.18466 81.0749 9C81.234 8.81534 81.4357 8.66477 81.68 8.5483C81.9272 8.42898 82.2227 8.36932 82.5664 8.36932C83.021 8.36932 83.4457 8.48864 83.8406 8.72727C84.2383 8.96591 84.5593 9.33381 84.8036 9.83097C85.0479 10.3281 85.1701 10.9616 85.1701 11.7315C85.1701 12.473 85.0522 13.0938 84.8164 13.5938C84.5835 14.0938 84.2681 14.4688 83.8704 14.7188C83.4755 14.9688 83.0366 15.0938 82.5536 15.0938C82.2241 15.0938 81.9386 15.0398 81.6971 14.9318C81.4556 14.8239 81.2525 14.6818 81.0877 14.5057C80.9258 14.3295 80.8008 14.1406 80.7127 13.9389H80.6701V17.4545H78.5863ZM80.6275 11.7273C80.6275 12.0795 80.6744 12.3864 80.7681 12.6477C80.8647 12.9091 81.0025 13.1122 81.1815 13.2571C81.3633 13.3991 81.5806 13.4702 81.8335 13.4702C82.0891 13.4702 82.3065 13.3991 82.4854 13.2571C82.6644 13.1122 82.7994 12.9091 82.8903 12.6477C82.984 12.3864 83.0309 12.0795 83.0309 11.7273C83.0309 11.375 82.984 11.0696 82.8903 10.8111C82.7994 10.5526 82.6644 10.3523 82.4854 10.2102C82.3093 10.0682 82.092 9.99716 81.8335 9.99716C81.5778 9.99716 81.3604 10.0668 81.1815 10.206C81.0025 10.3452 80.8647 10.544 80.7681 10.8026C80.6744 11.0611 80.6275 11.3693 80.6275 11.7273ZM86.2621 17.4545V8.45455H88.3246V9.57528H88.3885C88.4737 9.37642 88.5945 9.18466 88.7507 9C88.9098 8.81534 89.1115 8.66477 89.3558 8.5483C89.603 8.42898 89.8984 8.36932 90.2422 8.36932C90.6967 8.36932 91.1214 8.48864 91.5163 8.72727C91.9141 8.96591 92.2351 9.33381 92.4794 9.83097C92.7237 10.3281 92.8459 10.9616 92.8459 11.7315C92.8459 12.473 92.728 13.0938 92.4922 13.5938C92.2592 14.0938 91.9439 14.4688 91.5462 14.7188C91.1513 14.9688 90.7124 15.0938 90.2294 15.0938C89.8999 15.0938 89.6143 15.0398 89.3729 14.9318C89.1314 14.8239 88.9283 14.6818 88.7635 14.5057C88.6016 14.3295 88.4766 14.1406 88.3885 13.9389H88.3459V17.4545H86.2621ZM88.3033 11.7273C88.3033 12.0795 88.3501 12.3864 88.4439 12.6477C88.5405 12.9091 88.6783 13.1122 88.8572 13.2571C89.0391 13.3991 89.2564 13.4702 89.5092 13.4702C89.7649 13.4702 89.9822 13.3991 90.1612 13.2571C90.3402 13.1122 90.4751 12.9091 90.5661 12.6477C90.6598 12.3864 90.7067 12.0795 90.7067 11.7273C90.7067 11.375 90.6598 11.0696 90.5661 10.8111C90.4751 10.5526 90.3402 10.3523 90.1612 10.2102C89.9851 10.0682 89.7678 9.99716 89.5092 9.99716C89.2536 9.99716 89.0362 10.0668 88.8572 10.206C88.6783 10.3452 88.5405 10.544 88.4439 10.8026C88.3501 11.0611 88.3033 11.3693 88.3033 11.7273Z" fill="#046380"/>
<path d="M7.375 7.9858V6.27273H14.7514V7.9858H12.1051V15H10.0256V7.9858H7.375Z" fill="white"/>
</g>
<defs>
<clipPath id="clip0_1_2">
<rect width="94" height="22" fill="white"/>
</clipPath>
</defs>
</svg>
